<mxfile host="app.diagrams.net" modified="2022-03-14T00:31:14.232Z" agent="5.0 (Windows)" etag="rCG3kbozeO7V6T0LIrxW" version="17.1.2" type="github">
  <diagram id="xt5LPLB9xVCMQ6eTVr5T" name="Page-1">
    <mxGraphModel dx="980" dy="566" grid="1" gridSize="10" guides="1" tooltips="1" connect="1" arrows="1" fold="1" page="1" pageScale="1" pageWidth="850" pageHeight="1100" math="0" shadow="0">
      <root>
        <mxCell id="0" />
        <mxCell id="1" parent="0" />
        <mxCell id="fWMLcl5QMCC46aXFxnwl-5" style="edgeStyle=orthogonalEdgeStyle;rounded=0;orthogonalLoop=1;jettySize=auto;html=1;entryX=0;entryY=0.5;entryDx=0;entryDy=0;" parent="1" source="fWMLcl5QMCC46aXFxnwl-1" target="fWMLcl5QMCC46aXFxnwl-2" edge="1">
          <mxGeometry relative="1" as="geometry" />
        </mxCell>
        <mxCell id="fWMLcl5QMCC46aXFxnwl-6" style="edgeStyle=orthogonalEdgeStyle;rounded=0;orthogonalLoop=1;jettySize=auto;html=1;exitX=1;exitY=0.5;exitDx=0;exitDy=0;entryX=0;entryY=0.5;entryDx=0;entryDy=0;" parent="1" source="fWMLcl5QMCC46aXFxnwl-1" target="fWMLcl5QMCC46aXFxnwl-4" edge="1">
          <mxGeometry relative="1" as="geometry" />
        </mxCell>
        <mxCell id="cE-Gcoh-OOLHLLaWDFRM-3" style="edgeStyle=orthogonalEdgeStyle;rounded=0;orthogonalLoop=1;jettySize=auto;html=1;entryX=0.5;entryY=0;entryDx=0;entryDy=0;" edge="1" parent="1" source="fWMLcl5QMCC46aXFxnwl-1" target="cE-Gcoh-OOLHLLaWDFRM-2">
          <mxGeometry relative="1" as="geometry" />
        </mxCell>
        <mxCell id="fWMLcl5QMCC46aXFxnwl-1" value="Reset" style="rounded=1;whiteSpace=wrap;html=1;" parent="1" vertex="1">
          <mxGeometry x="320" y="60" width="120" height="60" as="geometry" />
        </mxCell>
        <mxCell id="fWMLcl5QMCC46aXFxnwl-2" value="Set radiogruppe" style="rounded=1;whiteSpace=wrap;html=1;" parent="1" vertex="1">
          <mxGeometry x="570" y="20" width="120" height="60" as="geometry" />
        </mxCell>
        <mxCell id="fWMLcl5QMCC46aXFxnwl-4" value="Bestem startilstand" style="rounded=1;whiteSpace=wrap;html=1;" parent="1" vertex="1">
          <mxGeometry x="570" y="100" width="120" height="60" as="geometry" />
        </mxCell>
        <mxCell id="cE-Gcoh-OOLHLLaWDFRM-5" style="edgeStyle=orthogonalEdgeStyle;rounded=0;orthogonalLoop=1;jettySize=auto;html=1;entryX=0.5;entryY=0;entryDx=0;entryDy=0;" edge="1" parent="1" source="cE-Gcoh-OOLHLLaWDFRM-2" target="cE-Gcoh-OOLHLLaWDFRM-4">
          <mxGeometry relative="1" as="geometry" />
        </mxCell>
        <mxCell id="cE-Gcoh-OOLHLLaWDFRM-2" value="Vent pÃ¥ startsignal" style="rounded=1;whiteSpace=wrap;html=1;" vertex="1" parent="1">
          <mxGeometry x="320" y="160" width="120" height="60" as="geometry" />
        </mxCell>
        <mxCell id="cE-Gcoh-OOLHLLaWDFRM-4" value="&lt;div&gt;Start lyssekvens&lt;/div&gt;" style="rounded=1;whiteSpace=wrap;html=1;" vertex="1" parent="1">
          <mxGeometry x="320" y="260" width="120" height="60" as="geometry" />
        </mxCell>
      </root>
    </mxGraphModel>
  </diagram>
</mxfile>
